<svg xmlns="http://www.w3.org/2000/svg" viewBox="0 0 2048 2048">
  <path d="M192 2048q-39 0-74-15t-61-41-42-62-15-74V192q0-39 15-74t41-61 62-42 74-15h128q39 0 74 15t61 41 42 62 15 74v1664q0 39-15 74t-41 61-62 42-74 15H192zm640 0q-39 0-74-15t-61-41-42-62-15-74V192q0-39 15-74t41-61 62-42 74-15h128q39 0 74 15t61 41 42 62 15 74v1664q0 39-15 74t-41 61-62 42-74 15H832zm-512-128q26 0 45-19t19-45V192q0-26-19-45t-45-19H192q-26 0-45 19t-19 45v1664q0 26 19 45t45 19h128zm640 0q26 0 45-19t19-45V192q0-26-19-45t-45-19H832q-26 0-45 19t-19 45v1664q0 26 19 45t45 19h128zm321-1317q0-66 38-116t102-69q36-11 74-23t76-12q33 0 63 11t55 32 42 47 26 60l286 1245q5 23 5 43 0 67-39 117t-104 69q-42 12-86 26t-90 14q-34 0-65-11t-56-32-42-48-25-62L1285 641q-4-17-4-38zm639 1219q0-5-2-15L1632 561q-5-21-22-35t-40-14q-26 0-57 10t-58 19q-20 6-33 23t-13 39v6q0 3 1 7l256 1252q5 23 22 37t41 14q12 0 31-4t39-10 40-12 33-10q20-6 34-22t14-39z" />
</svg>